<svg width="512" height="512" viewBox="0 0 512 512" fill="none" xmlns="http://www.w3.org/2000/svg">
<g clip-path="url(#clip0_3901_10708)">
<rect width="512" height="512" fill="white"/>
<path fill-rule="evenodd" clip-rule="evenodd" d="M312.57 41.9612C319.22 52.8756 335.226 79.1417 342.241 109.903C351.312 147.483 350.665 170.161 347.425 196.726C340.297 244.026 318.915 279.663 309.844 291.973C303.365 283.55 293.646 266.704 287.166 251.153C287.166 251.153 274.856 221.348 271.616 192.191C268.376 163.682 269.672 133.876 279.391 100.831C287.436 72.3664 303.754 46.8563 309.156 38.4112C309.41 38.0136 309.64 37.6539 309.844 37.3334C310.277 38.1996 311.235 39.7714 312.57 41.9612ZM298.181 236.251C298.829 259.577 305.309 274.479 309.844 282.254C313.732 274.479 321.507 256.985 320.859 234.307C320.211 210.981 312.436 194.135 309.844 190.247C307.253 194.783 298.181 213.573 298.181 236.251ZM335.762 211.629C338.354 202.558 339.65 187.655 340.297 173.401C340.297 159.146 339.002 135.172 331.874 109.255C324.747 83.985 311.14 60.0112 309.196 56.7716C307.253 60.0112 296.886 79.4494 287.166 109.903C284.575 119.622 280.039 139.06 279.391 158.498C278.743 181.824 281.983 205.15 283.279 211.629C283.279 203.854 283.279 177.936 288.462 156.554C292.998 135.82 302.069 110.551 309.844 98.2397C317.62 111.846 327.339 140.356 331.226 157.202C334.466 174.049 336.41 196.078 335.762 211.629ZM315.03 343.807C299.479 328.257 274.858 328.257 259.307 343.807V300.396H361.033V395.643C335.764 422.856 299.479 439.702 259.307 439.702C182.202 439.702 120 377.5 120 300.396C120 223.939 182.202 161.089 259.955 161.089V265.407C239.869 265.407 220.431 272.534 204.88 288.085C200.992 291.972 197.753 295.86 195.161 299.748C175.075 330.201 177.667 371.669 204.88 398.882C219.783 413.785 239.869 421.56 259.955 421.56C280.041 421.56 299.479 413.785 315.03 398.882C330.58 383.98 330.58 359.358 315.03 343.807Z"/>
</g>
<defs>
<clipPath id="clip0_3901_10708">
<rect width="512" height="512" fill="white"/>
</clipPath>
</defs>
</svg>
